HIERARCHY
ROOT RootJoint
{
    OFFSET   0.000000   0.000000   0.000000
    CHANNELS 6 Xposition Yposition Zposition Xrotation Yrotation Zrotation
    JOINT pelvis_lowerback
    {
        OFFSET   0.000000   0.093605   0.000000
        CHANNELS 3 Xrotation Yrotation Zrotation
        JOINT lowerback_torso
        {
            OFFSET   0.000000   0.100000   0.000000
            CHANNELS 3 Xrotation Yrotation Zrotation
            JOINT torso_head
            {
                OFFSET   0.000000   0.282350   0.000000
                CHANNELS 3 Xrotation Yrotation Zrotation
                End Site
                {
                    OFFSET   0.000000   0.192650   0.000000
                }
            }
            JOINT rTorso_Clavicle
            {
                OFFSET  -0.001000   0.157500   0.000000
                CHANNELS 3 Xrotation Yrotation Zrotation
                JOINT rShoulder
                {
                    OFFSET  -0.117647   0.000000   0.000000
                    CHANNELS 3 Xrotation Yrotation Zrotation
                    JOINT rElbow
                    {
                        OFFSET  -0.245000   0.000000   0.000000
                        CHANNELS 3 Xrotation Yrotation Zrotation
                        JOINT rWrist
                        {
                            OFFSET  -0.240000   0.000000   0.000000
                            CHANNELS 3 Xrotation Yrotation Zrotation
                            End Site
                            {
                                OFFSET  -0.116353  -0.002500   0.000000
                            }
                        }
                    }
                }
            }
            JOINT lTorso_Clavicle
            {
                OFFSET   0.001000   0.157500   0.000000
                CHANNELS 3 Xrotation Yrotation Zrotation
                JOINT lShoulder
                {
                    OFFSET   0.117647   0.000000   0.000000
                    CHANNELS 3 Xrotation Yrotation Zrotation
                    JOINT lElbow
                    {
                        OFFSET   0.245000   0.000000   0.000000
                        CHANNELS 3 Xrotation Yrotation Zrotation
                        JOINT lWrist
                        {
                            OFFSET   0.240000   0.000000   0.000000
                            CHANNELS 3 Xrotation Yrotation Zrotation
                            End Site
                            {
                                OFFSET   0.116353  -0.002500   0.000000
                            }
                        }
                    }
                }
            }
        }
    }
    JOINT rHip
    {
        OFFSET  -0.100000  -0.051395   0.000000
        CHANNELS 3 Xrotation Yrotation Zrotation
        JOINT rKnee
        {
            OFFSET   0.000000  -0.410000   0.000000
            CHANNELS 3 Xrotation Yrotation Zrotation
            JOINT rAnkle
            {
                OFFSET   0.000000  -0.390000   0.000000
                CHANNELS 3 Xrotation Yrotation Zrotation
                JOINT rToeJoint
                {
                    OFFSET   0.000000  -0.050000   0.130000
                    CHANNELS 3 Xrotation Yrotation Zrotation
                    End Site
                    {
                        OFFSET  -0.010000   0.002000   0.060000
                    }
                }
            }
        }
    }
    JOINT lHip
    {
        OFFSET   0.100000  -0.051395   0.000000
        CHANNELS 3 Xrotation Yrotation Zrotation
        JOINT lKnee
        {
            OFFSET   0.000000  -0.410000   0.000000
            CHANNELS 3 Xrotation Yrotation Zrotation
            JOINT lAnkle
            {
                OFFSET   0.000000  -0.390000   0.000000
                CHANNELS 3 Xrotation Yrotation Zrotation
                JOINT lToeJoint
                {
                    OFFSET   0.000000  -0.050000   0.130000
                    CHANNELS 3 Xrotation Yrotation Zrotation
                    End Site
                    {
                        OFFSET   0.010000   0.002000   0.060000
                    }
                }
            }
        }
    }
}
MOTION
Frames: 17
Frame Time:   0.008333
 -2.376719   0.925631   3.975860   0.000000   0.000000   0.000000   0.000000   0.000000   0.000000   0.000000   0.000000   0.000000   0.000000   0.000000   0.000000   0.000000   0.000000   0.000000   0.000000   0.000000   0.000000   0.000000   0.000000   0.000000   0.000000   0.000000   0.000000   0.000000   0.000000   0.000000   0.000000   0.000000   0.000000   0.000000   0.000000   0.000000   0.000000   0.000000   0.000000   0.000000   0.000000   0.000000   0.000000   0.000000   0.000000   0.000000   0.000000   0.000000   0.000000   0.000000   0.000000   0.000000   0.000000   0.000000   0.000000   0.000000   0.000000   0.000000   0.000000   0.000000   0.000000   0.000000   0.000000
 -2.376710   0.926066   3.975717  -0.334645   0.242811  -0.117189   0.310785  -0.106247   0.118214   0.301955  -0.183475   0.051745  -0.136323   0.041319   0.038323   0.131891  -0.196203  -0.017632   0.210306   0.035564   2.297843   0.018340   0.899597  -0.004980   0.028229  -0.317328  -2.626750   0.213945   0.230999  -0.205077   0.610233  -0.022728  -2.206175   0.023486  -1.134488   0.011109   0.168844   0.441633   2.661943   0.164496  -0.182118   0.005644   0.531174   0.000522   0.000277  -0.486237  -0.383316  -0.039742  -0.240776  -0.000320   0.000677   0.056367  -0.168639   0.271822   0.954955  -0.001280   0.000631  -0.928409   0.135476   0.057162   0.336792  -0.000620   0.000615
 -2.376707   0.926842   3.975478  -0.717864   0.519421  -0.244633   0.651251  -0.233050   0.245555   0.679551  -0.396352   0.117455  -0.235542   0.080180   0.087633   0.260319  -0.363036   0.634020   0.413367   0.111682   5.126368   0.041829   1.772672  -0.009130   0.080132  -0.361821  -4.551921   0.425906   0.393945  -1.096740   1.205490  -0.131474  -4.963963   0.053963  -2.239639   0.020164   0.372476   0.547596   4.609654   0.311440  -0.358224  -0.087068   1.103712   0.001540   0.000693  -0.940435  -0.745963  -0.081676  -0.492161  -0.000839   0.001115   0.175077  -0.319105   0.672952   1.973400  -0.003399   0.001715  -1.794054   0.265458   0.114141   0.617347  -0.001294   0.001127
 -2.376701   0.927577   3.975194  -1.087691   0.799221  -0.364426   0.990720  -0.372866   0.367318   1.059678  -0.619657   0.182446  -0.320351   0.116536   0.137628   0.380884  -0.489933   1.707945   0.606428   0.218809   8.300126   0.064716   2.596619  -0.012050   0.138394  -0.310055  -5.708546   0.625434   0.489149  -2.405107   1.779690  -0.312769  -8.074850   0.083914  -3.286624   0.026772   0.577061   0.513164   5.772995   0.406698  -0.524167  -0.277909   1.638213   0.002717   0.001020  -1.364789  -1.085115  -0.124515  -0.729237  -0.001414   0.001356   0.324973  -0.453507   1.161397   2.949277  -0.005741   0.002804  -2.601230   0.388001   0.170172   0.871747  -0.001957   0.001515
 -2.376693   0.927998   3.974909  -1.431407   1.068268  -0.474321   1.321193  -0.520387   0.480946   1.424526  -0.846393   0.243321  -0.397673   0.150438   0.185465   0.492947  -0.584159   3.027836   0.789274   0.351246  11.706354   0.084431   3.370949  -0.013866   0.198665  -0.216181  -6.297405   0.810380   0.531971  -3.948514   2.331763  -0.558728 -11.420543   0.109952  -4.274263   0.031364   0.779002   0.402508   6.359926   0.450932  -0.680330  -0.551228   2.123795   0.003838   0.001194  -1.762157  -1.402285  -0.167766  -0.953428  -0.001976   0.001482   0.496927  -0.574403   1.715402   3.869430  -0.007992   0.003732  -3.355084   0.503061   0.224995   1.099489  -0.002529   0.001763
 -2.376684   0.927901   3.974664  -1.747150   1.318831  -0.574681   1.638254  -0.672085   0.585432   1.768865  -1.072798   0.298076  -0.468802   0.182005   0.230825   0.596015  -0.655469   4.476019   0.961543   0.502188  15.268198   0.099956   4.096517  -0.014743   0.258319  -0.104454  -6.501107   0.979134   0.537157  -5.612071   2.857371  -0.859439 -14.907946   0.130659  -5.203438   0.034323   0.976311   0.246038   6.551141   0.451528  -0.826712  -0.890426   2.562912   0.004794   0.001226  -2.134356  -1.698852  -0.210972  -1.164609  -0.002477   0.001538   0.687600  -0.683407   2.318697   4.735620  -0.009993   0.004447  -4.059211   0.610839   0.278410   1.303585  -0.002984   0.001888
 -2.376726   0.927119   3.974482  -2.036351   1.547523  -0.663156   1.939355  -0.825439   0.672540   2.091460  -1.296775   0.329864  -0.534216   0.211327   0.278015   0.690723  -0.713643   5.982193   1.123460   0.664649  18.939207   0.111094   4.774405  -0.014850   0.315017   0.009023  -6.445160   1.132899   0.517097  -7.372386   3.327152  -1.189036 -18.314123   0.145139  -6.076566   0.035767   1.167202   0.057538   6.396222   0.416597  -0.963315  -1.279314   2.960430   0.005525   0.001152  -2.482988  -1.976144  -0.253813  -1.363058  -0.002886   0.001549   0.894641  -0.781672   2.958809   5.551862  -0.011701   0.004954  -4.716793   0.711565   0.330185   1.487079  -0.003323   0.001919
 -2.376720   0.924987   3.973833  -2.089669   1.737569  -0.732243   2.149851  -0.952160   0.781122   2.271285  -1.517555   0.304116  -0.693188   0.093946   0.261065   0.799480  -0.648272   6.903565   1.299957   0.785876  22.592804   0.116990   5.466491  -0.015244   0.279245   0.030972  -5.470115   1.370999   0.472111  -8.392328   3.569025  -1.557079 -21.763322   0.150330  -6.919288   0.035837   1.275964  -0.179136   5.330726   0.040371  -1.319371  -1.673764   3.480994   0.006458  -0.000052  -2.644764  -2.330618  -0.167319  -1.305225  -0.002116   0.000976   0.887635  -0.787470   3.518614   5.889219  -0.010706   0.004713  -5.217121   0.951592   0.394662   1.680465  -0.003552   0.002305
 -2.376691   0.921703   3.973010  -2.111981   1.935163  -0.796262   2.383868  -1.078461   0.890382   2.431225  -1.730374   0.283108  -0.853867  -0.022233   0.234428   0.887774  -0.550205   7.614941   1.447816   0.930343  25.911088   0.117159   6.121452  -0.015363   0.246289   0.074121  -4.519118   1.575736   0.395502  -9.162460   3.765131  -1.931087 -24.868345   0.148542  -7.716163   0.035298   1.377755  -0.455675   4.326624  -0.348093  -1.664329  -2.046013   3.961352   0.006903  -0.000884  -2.791621  -2.665304  -0.088132  -1.225357  -0.001446   0.000439   0.813023  -0.791714   4.024499   6.111447  -0.009356   0.004281  -5.689282   1.176591   0.457439   1.851123  -0.003550   0.002521
 -2.376519   0.920785   3.972423  -2.247969   2.132145  -0.404394   2.685370  -1.201278   0.644007   2.639463  -1.939032   0.119567  -0.996937  -0.131539   0.194962   0.959661  -0.430964   8.425349   1.569592   1.088820  29.044727   0.115135   6.735745  -0.015234   0.217283   0.125700  -3.748551   1.746933   0.289228  -9.927691   3.919030  -2.304319 -27.719874   0.143913  -8.459370   0.034094   1.475003  -0.715330   3.583426  -0.583074  -1.981825  -2.799327   4.414108   0.006866  -0.001415  -2.920149  -2.981059  -0.017281  -1.085088  -0.000805  -0.000207   0.552447  -0.651523   3.657042   6.699395  -0.007346   0.005396  -5.613988   1.487933   0.296118   2.063249  -0.002538   0.003271
 -2.376856   0.920559   3.972132  -2.354474   2.193130  -0.343530   2.933983  -1.258576   0.686782   2.831610  -2.087328   0.057118  -1.123136  -0.231271   0.153743   1.019605  -0.306934   9.086674   1.671534   1.251185  31.932539   0.110628   7.314668  -0.014525   0.193131   0.202105  -2.993647   1.915172   0.210363 -10.601964   4.052635  -2.649158 -30.391139   0.136509  -9.154386   0.032302   1.565630  -0.974291   2.852908  -0.816307  -2.340246  -2.902266   5.013697   0.005513  -0.002858  -2.895125  -3.322213   0.150349  -0.986330  -0.000743  -0.000735   0.417054  -0.604686   3.636113   7.139334  -0.005925   0.004856  -5.839739   1.698688   0.303622   2.250398  -0.002069   0.003175
 -2.377285   0.920405   3.971964  -2.408714   2.238825  -0.299469   3.140267  -1.316578   0.740049   2.987312  -2.220794   0.023346  -1.244666  -0.324995   0.122146   1.073314  -0.193573   9.623183   1.759099   1.405118  34.586014   0.104254   7.856905  -0.013515   0.169699   0.287776  -2.315323   2.074615   0.147333 -11.150943   4.167246  -2.966424 -32.844644   0.127032  -9.801974   0.030134   1.649034  -1.220122   2.186789  -1.027779  -2.626447  -2.967870   5.498719   0.004337  -0.003409  -2.966098  -3.592194   0.219160  -0.892408  -0.000635  -0.001019   0.290281  -0.591290   3.629887   7.488198  -0.004798   0.004146  -6.102468   1.881382   0.336552   2.399751  -0.001719   0.002882
 -2.377786   0.920274   3.971859  -2.431987   2.274057  -0.261733   3.329949  -1.369856   0.803236   3.122613  -2.343068   0.004557  -1.361471  -0.412673   0.094525   1.121016  -0.088919  10.063670   1.833882   1.549896  37.022363   0.096802   8.363185  -0.012413   0.146173   0.371225  -1.739156   2.222020   0.092882 -11.598661   4.263706  -3.259993 -35.091943   0.116493 -10.405037   0.027818   1.726010  -1.447205   1.623443  -1.233932  -2.888235  -3.020961   5.919979   0.003375  -0.003633  -3.045417  -3.841817   0.279572  -0.815526  -0.000544  -0.001144   0.164901  -0.583351   3.631736   7.784383  -0.003902   0.003488  -6.365329   2.049788   0.371769   2.531864  -0.001437   0.002570
 -2.378418   0.920234   3.971752  -2.405939   2.339880  -0.269927   3.511370  -1.417991   0.820819   3.218547  -2.402019   0.087967  -1.434288  -0.548476   0.094654   1.141220  -0.050389  10.154641   1.939315   1.688518  38.952114   0.086379   8.831820  -0.011441   0.067677   0.496317  -0.492389   2.379109   0.007535 -11.629996   4.227426  -3.588651 -37.039081   0.104458 -11.024096   0.025364   1.749451  -1.640542   0.523408  -1.289342  -3.104125  -2.997279   5.954943   0.002687  -0.002954  -2.989634  -3.984293   0.320833  -0.650972  -0.000525  -0.001336   0.035946  -0.523297   3.690835   7.949671  -0.003162   0.003001  -6.479874   2.182333   0.470813   2.629949  -0.001261   0.002293
 -2.379105   0.920265   3.971551  -2.325676   2.388961  -0.292095   3.682095  -1.452642   0.832250   3.288375  -2.450897   0.173113  -1.500937  -0.674133   0.101263   1.145405  -0.008924   9.987575   2.024991   1.819088  40.570867   0.075244   9.272319  -0.010490  -0.008209   0.631555   0.511499   2.503079  -0.081987 -11.416977   4.172575  -3.894031 -38.687821   0.091512 -11.609500   0.023034   1.768431  -1.863353  -0.350709  -1.353101  -3.300582  -2.952877   5.889705   0.002176  -0.002279  -2.968387  -4.115644   0.357785  -0.495177  -0.000518  -0.001444  -0.118220  -0.467016   3.763325   8.050051  -0.002558   0.002509  -6.607772   2.305319   0.568678   2.730135  -0.001122   0.002049
 -2.379828   0.920337   3.971288  -2.212519   2.418313  -0.318814   3.850630  -1.481221   0.836834   3.345383  -2.494166   0.247915  -1.562131  -0.790844   0.108507   1.135463   0.035930   9.649006   2.092860   1.942841  41.948261   0.064398   9.686634  -0.009559  -0.081098   0.774962   1.225755   2.605112  -0.168209 -11.041858   4.108356  -4.171402 -40.098694   0.078823 -12.157274   0.020898   1.786063  -2.084642  -0.949289  -1.431951  -3.483820  -2.900535   5.779031   0.001788  -0.001677  -2.968151  -4.239037   0.391896  -0.355974  -0.000508  -0.001486  -0.281549  -0.416694   3.838611   8.102333  -0.002063   0.002050  -6.745332   2.419502   0.662739   2.820865  -0.000997   0.001805
 -2.380578   0.920432   3.970996  -2.079024   2.430384  -0.347593   4.018529  -1.506626   0.834395   3.396843  -2.533614   0.311073  -1.617609  -0.899674   0.115027   1.116392   0.080969   9.199270   2.147371   2.058198  43.134261   0.054362  10.075168  -0.008659  -0.151317   0.921115   1.708350   2.691902  -0.247881 -10.563271   4.039855  -4.421692 -41.320678   0.067073 -12.668031   0.018962   1.803044  -2.290735  -1.328538  -1.522218  -3.655125  -2.843445   5.644247   0.001489  -0.001160  -2.980050  -4.354965   0.423708  -0.230370  -0.000494  -0.001483  -0.447182  -0.371837   3.914520   8.121123  -0.001657   0.001652  -6.886596   2.525490   0.752499   2.902684  -0.000885   0.001571
